<svg version="1" xmlns="http://www.w3.org/2000/svg" width="548" height="548" viewBox="0 0 411.000000 411.000000"><path d="M82.4 22c-7.5 1.6-13.8 5.3-21 12.5C49.5 46.4 42.9 57.9 29 91c-10.9 26-14.4 33.3-19.6 40.8-8.9 12.8-10.5 18.5-6.6 24 2.7 3.8 7.5 5.4 15.6 5.4 7.7-.1 13.1-1.3 28.1-6.4 22.7-7.6 35.5-14.9 46.4-26.3 3.4-3.5 6.1-6 6.1-5.7 0 .4.2 7.7.4 16.2.4 16.6.7 18.9 3.7 30.8 1.1 4.2 2.2 8.8 2.5 10.2.3 1.4 1.9 5.9 3.7 10l3.1 7.5.1 25.5c0 34.6-1.2 52.1-5.1 74.9-2.6 15.1-7.5 32.9-10 36.1-.6.8-1.5 2.5-1.8 3.7-.4 1.3-2.5 4.5-4.6 7.1l-3.8 4.9 3.7 3.9c4.7 5 9.8 9.4 11 9.4.5 0 1.1.4 1.3.8.5 1.4 9.1 6.7 16.3 10.2 17.3 8.2 37.1 13.4 59.5 15.7 9.8 1 43.5 1 52.7 0 28.1-3 53.6-11.1 71.3-22.6 7.2-4.7 9.6-6.6 15.3-12.4 5.1-5.2 5.1-4.9.6-10.2-4.7-5.5-10-18.8-13.8-34.5-2.1-8.8-2.5-11-3.7-19.5-.3-2.8-.8-5.8-1-6.8-.1-.9-.6-5.2-.9-9.5-.4-4.2-.9-11.3-1.3-15.7-.4-4.4-.7-19.5-.6-33.5l.1-25.5 4.6-13.5c7.1-20.9 9-32.4 8.9-52.1v-11.6l6.1 6.2c3.4 3.4 8.3 7.8 11 9.8 13.9 10.3 52 23.9 64.7 23 6-.4 11-1.5 11-2.3 0-.5.8-1.1 1.8-1.4 2.7-.9 4.3-6.8 3-11.4-.6-2-3.6-7.5-6.7-12.2-6.3-9.4-12-20.7-17.7-35-2-5.2-4.1-9.9-4.5-10.5-.5-.5-.9-1.4-.9-2.1 0-1.2-4.7-12-9.8-22.4-8.3-17-21.1-32.7-31.3-38.3-10.1-5.5-22.9-5.8-37.7-1.1-6.4 2.1-25.8 9.7-37.7 14.9-1.6.7-4.8 1.7-7 2-2.2.4-4.8.9-5.8 1.1-1.1.2-6.2-.6-11.5-1.7-21.5-4.4-43-4.5-63.2-.4-7.4 1.5-8.8 1.7-12 1.9-3.3.2-9.6-.9-13-2.2-.8-.3-1.7-.6-2-.6-1.1-.3-12.9-5.1-19-7.9-18.3-8.3-36.1-12-46.6-9.7z"/></svg>