<?xml version="1.0" standalone="no"?>
<!DOCTYPE svg PUBLIC "-//W3C//DTD SVG 20010904//EN"
 "http://www.w3.org/TR/2001/REC-SVG-20010904/DTD/svg10.dtd">
<svg version="1.0" xmlns="http://www.w3.org/2000/svg"
 width="544.000000pt" height="544.000000pt" viewBox="0 0 544.000000 544.000000"
 preserveAspectRatio="xMidYMid meet">
<metadata>
Created by potrace 1.11, written by Peter Selinger 2001-2013
</metadata>
<g transform="translate(0.000000,544.000000) scale(0.100000,-0.100000)"
fill="#000000" stroke="none">
<path d="M3795 5020 c-4 -6 -21 -8 -41 -4 -46 8 -84 -16 -84 -54 0 -16 5 -33
11 -39 8 -8 7 -17 -2 -32 -12 -18 -11 -22 5 -34 15 -11 16 -17 7 -35 -9 -17
-7 -23 17 -41 26 -20 26 -20 5 -21 -50 0 -68 -86 -24 -110 15 -8 19 -17 14
-43 -6 -40 23 -70 67 -70 20 0 32 -6 36 -19 7 -23 50 -24 62 -2 7 13 13 14 29
6 24 -13 68 12 59 33 -2 7 4 15 15 18 20 5 26 32 9 42 -28 17 -5 27 57 24 83
-5 90 9 26 47 -31 18 -42 29 -33 32 8 3 19 10 23 16 5 7 12 5 20 -8 46 -71 73
-85 38 -20 -26 49 -27 64 -1 57 13 -4 22 1 27 13 4 11 13 25 20 32 18 18 16
39 -3 50 -13 7 -14 13 -6 29 12 22 -1 43 -25 43 -7 0 -19 11 -25 25 -13 30
-52 43 -73 25 -12 -10 -21 -10 -41 -1 -14 6 -30 9 -35 5 -5 -3 -27 -7 -48 -8
-33 -3 -39 0 -49 26 -10 28 -44 39 -57 18z m195 -270 c0 -5 -2 -10 -4 -10 -3
0 -8 5 -11 10 -3 6 -1 10 4 10 6 0 11 -4 11 -10z m65 -81 c28 -17 39 -27 25
-23 -14 4 -40 10 -58 15 -39 9 -46 14 -37 28 9 16 14 14 70 -20z"/>
<path d="M1668 4952 c-10 -26 -16 -29 -49 -26 -21 1 -43 5 -48 8 -5 4 -21 1
-35 -5 -20 -9 -29 -9 -41 1 -22 18 -64 4 -75 -25 -5 -14 -15 -25 -23 -25 -24
0 -37 -21 -25 -43 8 -16 7 -22 -6 -29 -19 -11 -21 -44 -3 -55 8 -4 17 -16 20
-27 5 -12 14 -17 27 -13 26 7 25 -8 -1 -57 -35 -65 -8 -51 38 20 8 13 15 15
20 8 4 -6 15 -13 23 -16 9 -3 -2 -14 -33 -32 -64 -38 -57 -52 26 -47 62 3 85
-7 57 -24 -17 -10 -11 -37 9 -42 11 -3 17 -11 15 -18 -9 -21 35 -46 59 -33 16
8 22 7 29 -6 12 -22 55 -21 62 2 4 13 16 19 36 19 44 0 73 30 67 70 -5 26 -1
35 14 43 44 24 26 110 -24 110 -21 1 -21 1 5 21 24 18 26 24 17 41 -9 18 -8
24 7 35 16 12 17 16 5 34 -9 15 -10 24 -2 32 6 6 11 23 11 39 0 38 -38 62 -84
54 -20 -4 -37 -2 -41 4 -13 21 -47 10 -57 -18z m-118 -246 c0 -3 -4 -8 -10
-11 -5 -3 -10 -1 -10 4 0 6 5 11 10 11 6 0 10 -2 10 -4z m-15 -67 c4 -6 5 -12
2 -15 -5 -6 -111 -33 -114 -30 -4 3 90 55 99 56 4 0 10 -5 13 -11z"/>
<path d="M4284 4598 l-29 -33 33 29 c30 28 37 36 29 36 -2 0 -16 -15 -33 -32z"/>
<path d="M1200 4577 c0 -2 15 -16 33 -33 l32 -29 -29 33 c-28 30 -36 37 -36
29z"/>
<path d="M4434 4488 l-29 -33 33 29 c17 17 32 31 32 33 0 8 -8 1 -36 -29z"/>
<path d="M4270 4448 c-11 -18 -20 -37 -20 -42 0 -12 1 -10 28 37 26 45 19 50
-8 5z"/>
<path d="M1070 4445 c13 -14 26 -25 28 -25 3 0 -5 11 -18 25 -13 14 -26 25
-28 25 -3 0 5 -11 18 -25z"/>
<path d="M1243 4391 c12 -22 23 -38 25 -36 5 5 -26 63 -37 69 -5 4 0 -12 12
-33z"/>
<path d="M4600 4390 c-8 -5 -12 -12 -9 -15 4 -3 12 1 19 10 14 17 11 19 -10 5z"/>
<path d="M900 4346 c0 -2 7 -9 15 -16 9 -7 15 -8 15 -2 0 5 -7 12 -15 16 -8 3
-15 4 -15 2z"/>
<path d="M4440 4319 c-7 -11 -10 -23 -7 -25 2 -2 9 7 15 21 14 30 7 33 -8 4z"/>
<path d="M1076 4257 c3 -10 9 -15 12 -12 3 3 0 11 -7 18 -10 9 -11 8 -5 -6z"/>
<path d="M4735 4239 c-4 -6 -5 -12 -2 -15 2 -3 7 2 10 11 7 17 1 20 -8 4z"/>
<path d="M1779 4217 c-142 -40 -256 -194 -398 -538 -84 -204 -115 -269 -173
-354 -64 -95 -73 -147 -33 -185 22 -21 38 -25 99 -28 84 -5 172 16 332 79 124
48 202 98 277 174 l57 59 0 -105 c0 -140 22 -270 71 -414 l41 -120 -5 -290
c-5 -301 -21 -454 -65 -623 l-19 -72 21 6 c57 18 74 29 123 82 l52 57 105 0
c95 0 107 2 137 24 l33 25 25 -35 c15 -18 47 -55 74 -82 36 -36 50 -59 58 -97
22 -105 85 -153 199 -153 116 0 176 47 200 155 8 41 19 59 51 86 22 19 52 52
65 74 l24 38 27 -17 c22 -14 49 -18 131 -18 l103 0 52 -58 c50 -55 108 -87
157 -87 16 0 16 4 -1 68 -42 150 -60 324 -66 627 l-5 290 40 120 c52 150 72
267 72 408 l0 110 64 -64 c101 -101 224 -164 437 -225 119 -34 224 -32 264 6
41 38 31 92 -33 184 -63 91 -77 119 -163 328 -162 397 -272 539 -439 570 -86
16 -172 0 -328 -64 -262 -106 -287 -111 -412 -83 -36 8 -119 18 -185 21 -115
6 -170 2 -333 -27 -92 -17 -138 -7 -297 59 -229 96 -335 118 -436 89z m1036
-429 c2 -7 13 -95 25 -196 32 -277 54 -336 245 -632 187 -292 236 -405 243
-567 3 -84 0 -114 -16 -170 -51 -166 -155 -253 -314 -261 -77 -4 -92 -2 -142
21 l-56 26 0 65 0 65 58 17 c125 36 190 92 261 228 68 129 23 257 -108 307
-68 26 -273 37 -366 20 -131 -24 -204 -92 -213 -196 -5 -67 5 -96 74 -200 61
-92 91 -115 197 -151 l77 -26 0 -64 0 -65 -56 -26 c-50 -23 -65 -25 -142 -21
-160 8 -262 93 -314 261 -29 95 -22 241 15 346 36 99 106 228 213 391 107 165
175 293 203 383 12 38 30 148 41 245 12 98 23 185 26 195 6 20 43 23 49 5z
m-610 -458 c0 -20 -6 -26 -27 -28 -24 -3 -28 0 -28 21 0 30 9 39 35 35 14 -2
20 -10 20 -28z m1223 -2 c3 -24 0 -28 -23 -28 -27 0 -41 20 -31 46 10 27 51
13 54 -18z"/>
<path d="M776 4187 c3 -10 9 -15 12 -12 3 3 0 11 -7 18 -10 9 -11 8 -5 -6z"/>
<path d="M5061 3934 c-17 -25 -31 -58 -31 -73 0 -17 -7 -31 -16 -35 -13 -5
-15 -15 -11 -45 2 -21 1 -45 -4 -53 -6 -11 4 -39 32 -92 l40 -76 -41 0 c-29 0
-40 -4 -40 -15 0 -15 75 -69 112 -81 27 -8 34 -51 13 -74 -21 -23 -21 -22 20
-36 22 -7 39 -25 63 -69 19 -33 31 -52 28 -42 -67 214 -84 299 -89 447 -4 121
-4 123 9 70 8 -30 13 -89 13 -130 -1 -77 23 -187 75 -340 22 -63 25 -68 19
-30 -11 77 -4 122 23 157 32 42 28 57 -10 38 -16 -9 -31 -13 -34 -10 -11 10
21 92 50 129 l31 39 -37 -5 c-39 -4 -48 10 -19 33 35 30 53 119 23 119 -5 0
-12 15 -15 33 -4 17 -15 41 -25 52 -10 11 -21 30 -24 42 -6 19 -101 93 -119
93 -3 0 -19 -20 -36 -46z"/>
<path d="M498 3941 c-26 -14 -54 -38 -63 -53 -9 -16 -23 -28 -31 -28 -8 0 -19
-12 -25 -27 -6 -16 -20 -38 -31 -50 -19 -20 -20 -30 -14 -103 4 -44 3 -80 -1
-80 -5 0 -18 7 -29 15 -54 40 -60 -12 -9 -76 41 -51 49 -109 16 -109 -30 0
-35 -19 -10 -39 20 -16 24 -32 30 -102 3 -46 7 -70 7 -52 1 18 16 101 32 185
23 116 39 167 64 213 18 33 41 84 50 113 10 29 20 51 22 49 10 -10 -21 -106
-52 -163 -26 -48 -40 -96 -63 -210 -16 -82 -31 -169 -34 -194 -6 -45 -6 -45 8
-15 8 17 14 40 15 53 0 40 29 80 75 108 52 30 57 44 15 44 -18 0 -30 5 -30 13
0 22 54 67 105 86 l48 18 -43 15 -44 14 44 25 c52 29 89 74 73 90 -7 7 -8 23
-3 45 11 46 -2 139 -22 161 -9 10 -19 28 -22 40 -12 39 -28 42 -78 14z"/>
<path d="M5261 3194 c0 -11 3 -14 6 -6 3 7 2 16 -1 19 -3 4 -6 -2 -5 -13z"/>
<path d="M5171 2424 c-16 -37 -59 -92 -133 -171 -144 -155 -183 -230 -183
-348 0 -69 4 -86 27 -127 59 -99 155 -145 281 -135 81 7 138 36 192 99 52 61
69 128 63 252 -5 91 -11 115 -57 239 -28 75 -51 145 -51 155 0 9 -3 28 -7 40
l-6 24 -23 -29 c-19 -23 -26 -26 -41 -17 -10 6 -23 24 -28 41 l-10 30 -24 -53z"/>
<path d="M231 2434 c-14 -39 -35 -43 -67 -13 l-23 22 -5 -29 c-3 -16 -20 -69
-37 -119 -68 -197 -79 -244 -79 -336 0 -117 23 -181 88 -241 67 -63 122 -82
219 -76 90 5 144 29 191 83 56 63 67 93 67 180 0 106 -35 183 -132 286 -123
132 -161 179 -186 228 l-24 49 -12 -34z"/>
<path d="M2165 1734 c-40 -21 -93 -72 -110 -105 -13 -24 -12 -28 6 -45 50 -45
171 -2 207 74 15 30 15 36 1 60 -18 33 -60 39 -104 16z"/>
<path d="M3386 1712 c-12 -20 24 -42 69 -42 45 0 65 14 47 32 -15 15 -108 23
-116 10z"/>
<path d="M3053 1655 c-11 -8 -26 -28 -33 -46 -12 -28 -12 -33 5 -45 32 -24 95
1 95 38 0 48 -35 75 -67 53z"/>
<path d="M2490 1631 c-5 -11 -10 -38 -10 -60 0 -32 5 -44 24 -57 14 -8 35 -14
48 -12 20 3 23 8 22 49 0 78 -56 131 -84 80z"/>
<path d="M3682 1604 c-24 -17 -40 -42 -52 -85 -8 -25 -6 -28 8 -20 9 5 35 28
57 50 35 36 37 43 24 56 -13 13 -17 13 -37 -1z"/>
<path d="M1855 1600 c-7 -11 54 -84 63 -76 5 6 -25 61 -41 75 -11 9 -17 9 -22
1z"/>
<path d="M3335 1516 c-13 -13 -27 -35 -30 -49 -8 -32 15 -79 48 -96 22 -11 32
-11 72 4 25 10 50 26 56 36 22 41 -45 129 -98 129 -13 0 -35 -11 -48 -24z"/>
<path d="M2792 1442 c-21 -21 -44 -53 -50 -70 -10 -28 -8 -33 10 -43 15 -8 30
-7 64 6 57 22 96 68 92 109 -3 28 -7 31 -40 34 -32 3 -43 -3 -76 -36z"/>
<path d="M388 1445 c6 -11 56 -65 111 -119 55 -55 97 -104 94 -109 -3 -6 -2
-7 4 -4 5 3 31 -16 57 -42 44 -45 47 -51 36 -72 -7 -13 -21 -32 -31 -42 -11
-10 -19 -23 -19 -30 0 -7 4 -6 10 3 8 13 12 11 26 -8 50 -71 94 -96 121 -67 9
10 6 15 -13 24 -13 6 -24 15 -24 21 0 14 7 13 34 -5 12 -8 34 -16 48 -17 14
-1 51 -25 83 -54 l59 -52 -30 -15 c-16 -8 -45 -18 -64 -22 -42 -9 -60 -22 -54
-39 3 -7 -2 -19 -11 -26 -21 -18 -19 -33 5 -27 11 3 20 1 20 -5 0 -6 7 -8 15
-4 18 7 20 -5 3 -23 -10 -11 -10 -14 0 -18 6 -3 12 -13 12 -23 0 -26 15 -33
30 -15 7 8 16 12 21 10 14 -9 30 33 23 60 -4 15 -2 25 5 25 6 0 11 -13 11 -28
0 -21 5 -28 21 -29 14 -1 19 3 15 13 -3 8 -1 14 4 14 15 0 12 30 -11 89 -11
30 -16 58 -11 63 4 4 30 -3 57 -16 33 -17 57 -23 77 -19 28 5 50 23 29 23 -6
0 -11 7 -11 15 0 10 -10 15 -27 15 -19 0 -24 3 -16 11 7 7 22 8 48 0 39 -11
60 -7 50 10 -4 5 1 12 9 15 26 10 18 34 -14 40 -16 4 -27 10 -24 15 10 17 -24
9 -50 -12 -28 -22 -48 -21 -21 1 17 14 21 35 4 24 -8 -5 -10 1 -5 19 8 34 -7
42 -30 16 -17 -19 -19 -19 -25 -2 -5 14 -9 9 -18 -22 -6 -22 -11 -48 -11 -57
0 -9 -5 -29 -10 -44 l-11 -28 -59 59 c-50 50 -57 60 -47 76 10 15 6 24 -21 52
-17 18 -32 39 -32 47 1 11 5 10 15 -4 8 -11 18 -17 21 -13 4 3 15 2 25 -4 23
-12 23 -11 5 32 -10 23 -29 42 -61 58 l-47 25 -31 -38 -32 -37 -174 168 c-96
92 -169 159 -163 148z"/>
<path d="M4940 1289 l-175 -170 -32 38 -32 37 -44 -24 c-25 -14 -46 -29 -47
-35 -1 -5 -9 -19 -16 -30 -19 -27 -17 -38 5 -26 10 6 21 7 25 4 3 -4 13 2 21
13 10 14 14 15 15 4 0 -8 -15 -29 -32 -47 -27 -28 -31 -37 -21 -52 10 -16 3
-26 -47 -76 -58 -58 -59 -58 -68 -34 -5 13 -12 44 -16 69 -7 50 -26 89 -26 56
0 -18 -1 -18 -24 3 -25 24 -41 16 -29 -15 5 -14 3 -16 -11 -11 -19 7 -15 -4
12 -35 20 -24 6 -23 -25 2 -26 20 -59 28 -49 11 3 -5 -8 -11 -24 -15 -32 -6
-40 -30 -14 -40 8 -3 13 -10 9 -15 -10 -17 11 -21 50 -10 26 8 41 7 48 0 8 -8
3 -11 -16 -11 -17 0 -27 -5 -27 -15 0 -8 -5 -15 -11 -15 -5 0 -7 -5 -3 -11 3
-6 17 -9 30 -6 13 2 21 0 18 -4 -9 -15 9 -10 60 16 28 14 54 21 58 17 5 -5 0
-32 -12 -61 -22 -56 -26 -91 -10 -91 5 0 7 -6 4 -14 -4 -10 1 -14 15 -13 16 1
21 8 21 29 0 15 5 28 11 28 7 0 9 -10 5 -25 -7 -27 9 -69 23 -60 5 2 14 -2 21
-10 15 -18 30 -11 30 15 0 10 6 20 13 23 10 4 10 7 0 18 -18 18 -16 30 2 23 8
-4 15 -2 15 4 0 6 9 8 20 5 24 -6 26 9 5 27 -9 7 -14 19 -11 26 6 17 -12 30
-54 39 -19 4 -48 14 -64 22 l-30 15 59 52 c32 29 69 53 83 54 14 1 36 9 48 17
27 18 34 19 34 5 0 -6 -11 -15 -24 -21 -31 -14 -14 -37 24 -33 24 3 46 23 82
74 15 21 19 23 27 10 6 -8 11 -10 11 -4 0 6 -13 26 -30 44 -16 18 -30 39 -30
45 0 17 95 106 105 98 4 -5 5 -3 2 3 -3 6 37 53 89 105 81 80 144 150 132 148
-2 0 -82 -77 -178 -170z"/>
<path d="M783 1400 c-4 -24 -8 -28 -19 -19 -19 15 -19 -8 0 -58 8 -21 17 -51
21 -66 6 -31 -1 -30 95 -11 17 3 38 18 50 34 18 25 18 29 4 34 -9 4 -23 1 -30
-5 -7 -6 -19 -9 -25 -7 -6 2 5 16 25 31 20 16 36 33 36 38 0 6 -5 7 -10 4 -7
-4 -8 3 -4 20 6 25 5 26 -27 23 -21 -2 -39 -11 -46 -23 -11 -17 -12 -18 -13
-3 0 11 -5 15 -15 12 -9 -4 -15 0 -15 10 0 28 -20 17 -27 -14z"/>
<path d="M4680 1404 c0 -10 -6 -14 -15 -10 -10 3 -15 -1 -15 -12 -1 -15 -2
-14 -13 3 -7 12 -25 21 -46 23 -32 3 -33 2 -27 -23 4 -17 3 -24 -4 -20 -5 3
-10 2 -10 -4 0 -5 16 -22 36 -38 20 -15 31 -29 25 -31 -6 -2 -18 1 -25 7 -7 6
-20 9 -29 6 -12 -5 -12 -11 -3 -31 11 -24 40 -37 106 -48 l35 -6 23 69 c26 82
28 98 8 82 -11 -9 -15 -5 -19 19 -7 31 -27 42 -27 14z"/>
<path d="M2194 1400 c-40 -16 -35 -28 18 -48 108 -40 108 -40 83 8 -24 45 -56
58 -101 40z"/>
<path d="M972 1283 c-13 -14 -75 -62 -100 -78 -6 -4 49 -93 68 -110 26 -23
101 -30 93 -9 -3 8 -10 14 -17 14 -6 0 -5 4 3 9 9 6 22 6 32 1 12 -7 25 -2 49
19 l33 28 -23 16 c-14 9 -19 20 -15 28 8 12 -27 9 -67 -6 -10 -4 -18 -3 -18 3
0 5 9 12 20 15 21 5 28 27 9 27 -6 0 -3 8 7 18 17 16 17 17 -5 20 -12 2 -29
-2 -38 -10 -14 -11 -15 -10 -9 10 9 27 2 28 -22 5z m24 -139 c18 -15 18 -15
-11 -9 -37 8 -57 25 -29 25 11 0 29 -7 40 -16z"/>
<path d="M4493 1276 c6 -15 2 -16 -28 -10 -30 5 -34 4 -29 -10 3 -9 11 -16 18
-16 6 0 5 -4 -3 -9 -16 -10 -6 -31 15 -31 8 0 14 -5 14 -11 0 -7 -7 -8 -17 -4
-41 15 -76 18 -68 6 4 -8 -1 -19 -15 -28 l-23 -16 33 -28 c24 -21 37 -26 49
-19 10 5 23 5 32 -1 8 -5 9 -9 3 -9 -7 0 -14 -6 -17 -14 -8 -21 67 -14 93 9
11 10 31 38 44 61 l24 44 -31 25 c-18 14 -41 34 -52 44 -35 30 -49 36 -42 17z
m52 -135 c-6 -5 -23 -12 -40 -16 -29 -6 -29 -6 -11 9 21 17 67 23 51 7z"/>
<path d="M645 1240 c17 -4 41 -8 55 -8 22 0 22 1 -5 8 -16 4 -41 8 -55 8 -22
0 -22 -1 5 -8z"/>
<path d="M4795 1230 c-27 -7 -27 -8 -5 -8 14 0 39 4 55 8 27 7 27 8 5 8 -14 0
-38 -4 -55 -8z"/>
<path d="M738 1223 c7 -3 16 -2 19 1 4 3 -2 6 -13 5 -11 0 -14 -3 -6 -6z"/>
<path d="M4738 1213 c7 -3 16 -2 19 1 4 3 -2 6 -13 5 -11 0 -14 -3 -6 -6z"/>
<path d="M606 1165 c11 -48 25 -76 18 -35 -4 19 -10 42 -15 50 -6 10 -7 5 -3
-15z"/>
<path d="M4870 1140 c-6 -23 -9 -44 -7 -46 2 -3 9 14 15 38 6 23 9 44 7 46 -2
2 -9 -15 -15 -38z"/>
<path d="M484 1075 c3 -10 -1 -15 -12 -15 -9 0 -24 -4 -31 -9 -12 -8 -10 -12
12 -22 20 -9 24 -15 15 -21 -8 -6 1 -8 25 -6 44 5 50 -8 8 -17 -35 -8 -60 -33
-43 -44 7 -4 8 -12 2 -21 -18 -28 -12 -43 15 -38 14 3 25 1 25 -6 1 -18 40 35
40 54 0 10 7 23 15 30 17 15 19 7 5 -21 -7 -13 -7 -19 0 -19 5 0 10 -7 10 -15
0 -23 19 -18 30 8 5 13 9 16 10 7 0 -13 1 -13 10 0 5 8 10 40 10 71 l0 57 -37
7 c-21 4 -50 13 -65 21 -35 18 -52 18 -44 -1z"/>
<path d="M631 1074 c0 -11 3 -14 6 -6 3 7 2 16 -1 19 -3 4 -6 -2 -5 -13z"/>
<path d="M4851 1064 c0 -11 3 -14 6 -6 3 7 2 16 -1 19 -3 4 -6 -2 -5 -13z"/>
<path d="M4960 1065 c-14 -7 -42 -17 -62 -20 l-38 -7 0 -56 c0 -32 5 -64 10
-72 9 -13 10 -13 10 0 1 9 5 6 10 -7 11 -26 30 -31 30 -8 0 8 5 15 12 15 9 0
9 3 0 12 -7 7 -12 18 -12 26 0 12 3 12 15 2 8 -7 15 -20 15 -30 0 -19 39 -72
40 -54 0 7 11 9 27 6 27 -5 28 1 7 52 -5 14 -4 17 4 12 16 -10 15 9 0 21 -7 6
-26 15 -43 21 l-30 10 40 1 c25 1 35 4 27 9 -9 6 -5 12 15 21 22 10 24 14 12
22 -7 5 -22 9 -31 9 -11 0 -15 5 -12 15 8 19 -13 19 -46 0z"/>
<path d="M630 922 c-32 -46 -51 -112 -32 -112 5 0 13 -10 16 -22 6 -21 7 -22
20 -6 16 21 26 13 26 -19 0 -14 6 -23 15 -23 8 0 24 -6 35 -12 17 -11 22 -10
30 2 5 8 8 21 5 29 -4 9 0 11 10 7 23 -9 18 12 -10 36 -14 12 -25 28 -25 37 0
10 6 8 22 -9 19 -20 23 -21 26 -8 2 10 10 14 23 11 25 -7 24 12 -1 37 -18 18
-18 20 -3 20 26 0 4 17 -64 49 l-61 29 -32 -46z m40 -79 c0 -13 -4 -23 -10
-23 -5 0 -10 17 -10 38 0 27 3 33 10 22 5 -8 10 -25 10 -37z"/>
<path d="M2282 948 c-7 -9 -7 -42 -2 -98 5 -47 14 -192 20 -324 6 -131 16
-249 21 -262 12 -33 47 -32 55 1 6 22 -20 439 -32 510 l-5 30 20 -35 c10 -19
40 -96 66 -170 55 -158 61 -170 81 -170 22 0 51 74 83 213 l28 122 6 -55 c4
-30 9 -143 13 -250 4 -107 11 -203 16 -212 5 -10 20 -18 33 -18 29 0 31 12 15
166 -5 55 -17 198 -25 319 -15 223 -22 253 -57 240 -11 -4 -28 -60 -58 -183
-23 -97 -44 -186 -47 -197 -4 -13 -22 28 -54 123 -49 144 -84 213 -123 244
-25 21 -40 22 -54 6z"/>
<path d="M3581 946 c-9 -10 -9 -42 -2 -122 6 -60 15 -210 21 -334 6 -129 16
-230 22 -237 15 -18 45 -16 52 4 4 9 4 46 1 82 -3 36 -10 134 -15 216 -6 83
-13 173 -16 200 -4 47 -4 49 10 25 7 -14 35 -86 61 -160 50 -144 71 -190 84
-190 28 0 62 86 96 248 10 45 19 81 21 79 2 -1 8 -115 15 -252 6 -138 16 -256
22 -263 6 -7 20 -12 31 -10 26 4 26 14 2 323 -30 390 -29 387 -48 399 -13 8
-21 7 -28 0 -6 -6 -31 -93 -55 -194 -24 -100 -46 -187 -48 -193 -2 -7 -23 47
-47 118 -52 158 -79 214 -120 249 -36 30 -43 31 -59 12z"/>
<path d="M4766 930 c-67 -33 -89 -50 -63 -50 15 0 15 -2 -3 -20 -25 -25 -26
-44 -1 -37 13 3 21 -1 23 -11 3 -13 7 -12 26 8 16 17 22 19 22 9 0 -9 -11 -25
-25 -37 -28 -24 -33 -45 -10 -36 10 4 14 2 10 -7 -3 -8 -1 -20 4 -28 8 -12 15
-12 45 3 22 10 36 24 36 35 0 27 11 33 26 13 13 -16 14 -15 20 6 3 12 10 22
15 22 20 0 7 49 -27 103 -19 31 -36 57 -37 56 -1 0 -29 -13 -61 -29z m74 -85
c0 -19 -4 -35 -10 -35 -11 0 -13 30 -4 54 10 25 14 19 14 -19z"/>
<path d="M1629 911 c-129 -81 -206 -266 -149 -358 24 -40 58 -58 140 -74 131
-24 141 -28 129 -47 -17 -28 -82 -70 -156 -101 -73 -31 -90 -48 -79 -76 5 -14
14 -16 49 -11 125 20 257 123 257 200 0 61 -40 85 -177 106 -84 14 -123 38
-123 78 0 41 44 126 91 177 39 42 46 46 76 40 52 -9 95 49 61 83 -20 20 -72
13 -119 -17z"/>
<path d="M1900 930 c-22 -14 -19 -353 4 -465 19 -94 60 -181 98 -209 26 -19
30 -19 62 -4 25 12 41 32 60 72 14 30 27 61 28 68 1 7 4 -25 7 -72 6 -87 16
-103 50 -81 12 8 12 29 2 140 -6 72 -11 223 -11 335 1 113 -1 210 -5 216 -10
16 -42 12 -49 -6 -3 -9 -6 -46 -6 -82 0 -164 -36 -425 -66 -483 -21 -42 -35
-45 -60 -14 -53 67 -79 233 -69 439 6 111 4 140 -7 147 -17 11 -20 11 -38 -1z"/>
<path d="M2945 924 c-77 -41 -155 -144 -179 -236 -34 -130 21 -191 194 -218
41 -6 79 -15 84 -20 21 -21 -54 -78 -167 -125 -61 -26 -68 -31 -65 -54 3 -24
7 -26 46 -24 56 2 139 41 191 89 111 100 90 178 -56 203 -37 7 -80 15 -95 17
-45 9 -78 41 -78 78 0 45 42 124 92 174 35 36 46 42 69 37 46 -10 71 10 67 53
-3 34 -5 37 -38 39 -19 2 -48 -4 -65 -13z"/>
<path d="M3190 925 c-19 -22 -7 -408 14 -494 33 -128 94 -203 149 -182 23 9
77 74 77 93 0 4 6 19 12 35 12 26 13 21 18 -56 5 -87 13 -101 43 -78 17 11 17
20 6 102 -7 50 -12 202 -13 340 -1 235 -2 250 -20 253 -10 2 -22 0 -27 -5 -4
-4 -13 -86 -19 -181 -6 -96 -18 -213 -26 -260 -15 -87 -46 -172 -62 -172 -20
0 -55 52 -75 111 -19 57 -22 88 -23 275 0 116 -4 216 -8 223 -10 15 -31 14
-46 -4z"/>
<path d="M990 866 c0 -2 8 -10 18 -17 15 -13 16 -12 3 4 -13 16 -21 21 -21 13z"/>
<path d="M4479 843 c-13 -16 -12 -17 4 -4 9 7 17 15 17 17 0 8 -8 3 -21 -13z"/>
<path d="M1037 743 c-4 -74 0 -105 11 -74 3 9 10 2 18 -18 13 -31 34 -35 34
-6 0 9 6 12 16 8 14 -5 15 -1 9 27 -5 21 -4 30 3 26 5 -3 13 -21 16 -41 6 -32
26 -59 26 -36 0 6 12 8 29 5 26 -6 28 -3 35 33 5 31 2 40 -14 52 -23 16 -27
36 -5 28 20 -8 28 8 10 23 -8 7 -15 18 -15 25 0 19 -24 25 -100 25 l-67 0 -6
-77z m124 17 c32 -26 3 -27 -31 0 -19 15 -21 20 -9 20 9 0 27 -9 40 -20z"/>
<path d="M4293 803 c-7 -2 -13 -10 -13 -18 0 -7 -7 -18 -15 -25 -18 -15 -10
-31 10 -23 22 8 18 -12 -5 -28 -16 -12 -19 -21 -14 -52 7 -36 9 -39 35 -33 17
3 29 1 29 -5 0 -23 20 4 26 36 3 20 11 38 16 41 7 4 8 -5 3 -26 -6 -28 -5 -32
9 -27 10 4 16 1 16 -8 0 -29 21 -25 34 6 8 20 15 27 18 18 11 -31 15 0 11 74
l-6 77 -71 -1 c-39 0 -77 -3 -83 -6z m67 -53 c-34 -27 -63 -26 -31 0 13 11 31
20 40 20 12 0 10 -5 -9 -20z"/>
</g>
</svg>
