<?xml version="1.0" standalone="no"?>
<!DOCTYPE svg PUBLIC "-//W3C//DTD SVG 20010904//EN"
 "http://www.w3.org/TR/2001/REC-SVG-20010904/DTD/svg10.dtd">
<svg version="1.0" xmlns="http://www.w3.org/2000/svg"
 width="1792.000000pt" height="1792.000000pt" viewBox="0 0 1792.000000 1792.000000"
 preserveAspectRatio="xMidYMid meet">
<metadata>
Created by potrace 1.11, written by Peter Selinger 2001-2013
</metadata>
<g transform="translate(0.000000,1792.000000) scale(0.100000,-0.100000)"
fill="#000000" stroke="none">
<path d="M8425 17872 c201 -107 330 -232 422 -406 40 -77 42 -79 43 -46 1 104
-67 259 -149 341 -83 82 -187 127 -336 143 l-50 6 70 -38z"/>
<path d="M7514 17790 c-80 -8 -343 -56 -351 -64 -2 -2 77 -6 174 -9 593 -19
1050 -175 1352 -461 l65 -61 -54 78 c-138 202 -371 376 -611 457 -154 52 -393
77 -575 60z"/>
<path d="M7070 17526 c-411 -59 -725 -232 -828 -455 -49 -107 -25 -177 61
-175 23 1 91 15 151 32 157 46 225 55 350 49 124 -5 209 -31 319 -94 123 -71
309 -288 397 -463 l29 -57 -57 -17 c-210 -66 -537 -228 -732 -365 -205 -143
-440 -369 -562 -541 -61 -86 -185 -307 -176 -315 9 -8 109 -47 112 -44 2 2 20
36 39 75 20 39 67 118 106 175 352 523 1050 921 1779 1013 159 20 445 21 599
1 639 -82 1169 -434 1518 -1010 36 -60 64 -110 61 -112 -2 -2 -73 16 -157 40
-626 180 -1343 205 -2109 76 -553 -93 -1080 -281 -1500 -534 l-111 -67 -78 75
c-141 134 -272 196 -431 204 -119 6 -204 -12 -319 -69 -109 -54 -180 -122
-210 -203 -31 -82 -101 -185 -191 -279 -132 -138 -248 -215 -401 -267 -90 -30
-103 -32 -329 -40 -526 -19 -736 -53 -936 -149 -109 -53 -186 -113 -265 -207
-37 -43 -110 -125 -164 -182 -53 -58 -112 -127 -131 -155 -101 -150 -98 -347
12 -667 97 -283 226 -555 419 -879 249 -418 257 -464 156 -846 -33 -126 -64
-255 -67 -286 l-7 -57 31 8 c47 14 336 138 437 188 230 115 372 246 462 428
43 87 58 136 104 360 164 801 354 1282 637 1613 50 59 169 165 159 142 -201
-457 -283 -824 -294 -1326 -12 -527 67 -1042 242 -1580 l52 -162 -34 -88
c-199 -528 -344 -1107 -383 -1542 -16 -172 -8 -525 14 -645 53 -283 165 -508
330 -665 47 -44 133 -107 242 -174 151 -94 455 -273 476 -280 4 -2 -4 -37 -19
-78 -53 -150 -42 -283 37 -448 127 -267 321 -431 569 -482 327 -67 645 -7 820
155 62 58 95 113 106 177 l7 37 57 -45 c31 -24 72 -57 91 -73 60 -48 171 -121
229 -151 47 -24 66 -42 119 -119 109 -155 341 -360 499 -439 37 -19 43 -28 58
-79 124 -449 287 -667 564 -757 109 -36 179 -46 314 -46 315 0 591 90 753 247
156 149 232 354 254 683 l9 141 110 115 c152 158 261 325 328 503 18 49 35 74
71 105 144 124 325 355 423 539 l46 89 22 -36 c46 -73 164 -146 296 -181 82
-23 270 -30 378 -16 242 32 439 127 565 272 164 188 262 485 218 657 -18 73
-71 181 -119 244 l-35 45 146 124 c172 146 248 237 313 374 71 147 90 236 96
442 8 260 -31 491 -135 793 -122 358 -360 830 -634 1259 l-79 123 18 172 c23
237 23 708 0 944 -65 637 -238 1188 -511 1622 -43 69 -61 106 -52 108 20 5
170 -53 242 -93 255 -143 462 -388 639 -758 78 -163 132 -301 224 -571 105
-306 162 -409 299 -538 120 -113 246 -176 520 -259 165 -50 192 -55 192 -41 0
31 -42 151 -110 316 -100 241 -114 296 -107 401 7 106 37 198 163 491 238 558
364 1070 325 1324 -23 148 -79 230 -260 378 -58 48 -142 120 -186 160 -149
135 -319 201 -577 223 -150 13 -302 7 -583 -22 -305 -31 -398 -24 -553 38
-192 76 -422 265 -498 407 -50 94 -119 148 -243 191 -347 118 -632 -25 -866
-432 -26 -46 -50 -83 -55 -83 -4 0 -23 6 -41 14 -19 7 -42 16 -52 19 -16 6
-16 10 9 58 15 30 23 60 20 73 -8 34 -155 252 -243 361 -284 352 -686 616
-1106 725 l-88 23 -38 83 c-66 141 -172 314 -251 409 -71 87 -245 248 -322
299 -105 69 -401 217 -501 250 -136 46 -213 57 -417 61 -132 3 -226 0 -290 -9z
m528 -131 c46 -9 116 -28 155 -42 98 -35 364 -170 462 -235 103 -68 253 -218
335 -336 59 -83 193 -313 187 -319 -2 -1 -58 3 -126 10 l-122 11 6 33 c16 88
-66 199 -180 243 -126 47 -264 33 -332 -35 -58 -58 -43 -118 52 -203 l56 -50
-58 -6 c-32 -4 -124 -20 -206 -37 -81 -16 -149 -29 -151 -29 -3 0 -24 37 -48
83 -239 449 -561 656 -956 616 -81 -9 -239 -43 -296 -65 -17 -6 -17 -5 -6 16
24 45 106 124 177 170 146 97 358 163 613 194 76 9 358 -3 438 -19z m892
-3365 c31 -16 61 -128 210 -785 165 -725 193 -827 290 -1064 189 -461 385
-745 1120 -1631 307 -371 418 -509 552 -690 394 -532 645 -1030 742 -1467 41
-187 57 -477 36 -668 -68 -609 -361 -1091 -794 -1304 -215 -105 -415 -154
-641 -155 -160 -1 -240 11 -400 61 -116 36 -275 112 -275 132 0 17 -35 324
-45 399 -4 26 -2 42 4 42 15 0 254 103 441 190 196 91 293 155 401 267 114
118 191 237 315 488 182 368 214 469 221 680 4 126 2 150 -21 240 -92 357
-372 626 -726 699 -341 69 -1016 31 -1486 -84 -253 -62 -433 -135 -559 -225
-360 -259 -493 -746 -310 -1141 48 -106 139 -239 291 -429 256 -319 449 -476
680 -554 68 -23 395 -91 578 -121 65 -11 120 -21 121 -22 1 -2 14 -102 27
-223 l26 -220 -45 -42 c-92 -87 -279 -196 -443 -256 -140 -52 -284 -71 -490
-64 -236 8 -388 45 -574 140 -286 146 -515 393 -687 742 -158 323 -228 652
-216 1025 8 257 46 476 133 778 117 403 258 736 632 1487 312 626 421 858 505
1070 132 335 202 603 244 930 16 121 18 226 19 780 1 1005 0 951 29 980 25 26
63 32 95 15z m2845 -1606 c66 -31 73 -127 12 -164 -42 -26 -78 -25 -111 1 -57
45 -53 123 8 160 38 23 49 23 91 3z m-5238 -604 c87 -53 39 -190 -62 -177 -99
14 -118 150 -25 186 37 14 52 13 87 -9z m6451 -1170 c107 -186 253 -479 321
-645 282 -684 303 -1178 67 -1510 -90 -126 -562 -512 -911 -745 -209 -139
-559 -340 -571 -327 -3 3 1 41 10 84 25 127 36 228 41 398 12 345 77 601 344
1357 283 804 384 1150 461 1583 12 66 24 126 26 134 5 16 77 -96 212 -329z
m-7167 -577 c182 -424 376 -765 876 -1548 351 -549 516 -873 579 -1137 15 -62
42 -158 61 -213 45 -131 156 -358 227 -464 31 -46 55 -85 53 -87 -5 -5 -208
52 -362 103 -339 112 -708 292 -1180 576 -280 168 -332 205 -411 290 -78 84
-120 150 -170 266 -198 457 -132 1203 190 2161 36 107 66 197 66 199 0 15 19
-24 71 -146z m7218 -2128 c17 -24 46 -75 64 -112 29 -61 32 -77 32 -158 0 -72
-6 -107 -29 -177 -15 -49 -31 -88 -35 -88 -3 1 -31 37 -60 81 -30 44 -59 83
-63 85 -5 3 -22 -4 -38 -16 l-30 -22 74 -108 75 -108 -32 -48 c-35 -54 -143
-164 -161 -164 -6 0 -60 79 -120 175 -59 96 -111 175 -115 175 -3 0 -18 -10
-33 -23 l-28 -22 106 -170 c58 -93 108 -173 111 -178 8 -14 -176 -76 -269 -90
l-37 -6 -67 110 c-37 60 -69 109 -71 109 -10 0 -63 -35 -63 -42 0 -3 25 -46
55 -95 65 -102 67 -100 -69 -84 -180 21 -292 78 -339 172 -15 30 -30 71 -33
90 l-5 34 153 77 c165 83 380 208 546 320 115 77 417 302 427 318 11 18 21 11
54 -35z m-6388 -1099 c328 -160 560 -246 898 -333 97 -24 180 -48 184 -53 12
-11 -11 -118 -35 -161 -47 -84 -197 -163 -360 -188 -59 -10 -59 -8 -13 93 19
43 35 83 35 90 0 13 -56 43 -65 34 -2 -2 -26 -53 -53 -113 l-49 -110 -56 -3
c-56 -3 -227 21 -252 36 -10 5 7 53 66 186 43 98 80 185 81 193 2 8 -11 21
-30 28 l-33 15 -38 -83 c-20 -45 -57 -129 -82 -186 -24 -57 -49 -105 -56 -108
-17 -7 -119 66 -177 126 l-49 50 56 116 c31 64 57 118 57 121 0 4 -56 34 -65
34 -4 0 -27 -43 -51 -95 -25 -52 -47 -95 -50 -95 -12 0 -85 171 -101 234 -14
59 -15 77 -4 129 11 53 39 137 46 137 1 0 90 -42 196 -94z"/>
<path d="M7705 17098 c-59 -31 -148 -127 -184 -198 -54 -110 -36 -201 45 -216
99 -18 272 151 304 299 24 114 -58 171 -165 115z"/>
<path d="M12486 9930 c-82 -25 -122 -117 -114 -266 13 -247 158 -316 329 -157
123 114 131 245 24 350 -72 70 -159 97 -239 73z"/>
<path d="M12044 9128 c-93 -72 -94 -162 -4 -250 84 -81 180 -89 227 -19 27 39
29 81 8 141 -43 121 -158 184 -231 128z"/>
<path d="M12619 8860 c-67 -19 -151 -120 -184 -220 -31 -92 -18 -190 29 -229
27 -23 85 6 152 74 77 78 126 174 132 255 4 52 2 60 -24 88 -32 33 -66 44
-105 32z"/>
<path d="M5590 9263 c-107 -39 -202 -345 -142 -463 24 -49 74 -73 136 -65 139
17 214 118 204 273 -12 164 -108 288 -198 255z"/>
<path d="M5099 8720 c-77 -41 -133 -122 -145 -212 -13 -95 61 -196 175 -239
129 -48 213 -33 251 45 51 106 -6 326 -102 396 -50 36 -122 40 -179 10z"/>
<path d="M5845 8101 c-154 -40 -230 -221 -156 -373 117 -243 543 -411 774
-305 60 27 132 88 159 134 17 29 16 31 -12 90 -73 155 -336 363 -546 431 -71
23 -176 34 -219 23z"/>
<path d="M7610 16164 c-79 -67 -147 -291 -120 -395 23 -88 86 -122 184 -100
130 29 198 159 166 316 -35 170 -141 253 -230 179z"/>
<path d="M9010 16086 c-158 -33 -240 -99 -240 -191 0 -85 60 -149 267 -286
406 -268 571 -266 614 11 38 249 -53 389 -296 455 -82 23 -263 28 -345 11z"/>
<path d="M6911 15799 c-215 -42 -507 -326 -528 -512 -11 -92 44 -186 129 -221
204 -86 622 200 679 462 23 110 -49 236 -154 267 -56 17 -62 17 -126 4z"/>
<path d="M8209 15796 c-87 -31 -149 -113 -149 -199 0 -109 112 -148 223 -77
120 76 140 200 42 259 -44 27 -75 31 -116 17z"/>
<path d="M14735 6720 c-439 -50 -785 -234 -1096 -583 -112 -125 -215 -261
-394 -522 -216 -314 -300 -421 -435 -556 -236 -239 -402 -317 -770 -363 -262
-33 -640 -56 -1260 -78 -458 -16 -2721 -16 -3530 0 -1115 22 -1495 33 -1582
42 -356 41 -644 239 -1036 714 -452 547 -596 694 -847 859 -414 273 -970 342
-1451 182 -432 -144 -801 -485 -998 -923 -201 -447 -192 -971 26 -1419 164
-339 444 -620 790 -794 54 -27 98 -51 98 -53 0 -2 -33 -22 -72 -44 -195 -107
-420 -308 -551 -492 -80 -113 -185 -319 -226 -445 -63 -191 -75 -278 -75 -525
0 -197 3 -238 22 -330 132 -610 564 -1103 1141 -1304 164 -57 274 -77 468 -83
610 -20 1060 209 1481 754 51 65 167 227 259 358 267 387 398 543 552 665 137
108 255 167 419 212 74 20 110 21 917 29 462 4 1661 13 2665 19 1004 6 2093
15 2420 21 651 11 689 10 842 -41 267 -89 485 -269 807 -665 452 -556 589
-697 828 -857 314 -211 704 -307 1083 -269 214 22 372 66 555 156 475 231 814
672 925 1200 27 130 37 365 21 505 -67 587 -425 1094 -958 1356 -51 25 -93 47
-93 49 0 3 22 16 49 29 160 81 381 263 503 413 183 225 311 503 358 777 23
134 27 391 9 523 -50 363 -228 712 -504 988 -258 258 -563 419 -910 480 -109
20 -341 27 -450 15z m473 -149 c208 -44 421 -137 592 -259 121 -86 306 -270
393 -392 82 -115 185 -321 226 -450 55 -176 66 -255 66 -475 -1 -183 -3 -210
-29 -319 -73 -314 -199 -540 -426 -766 -182 -182 -354 -292 -608 -385 -56 -21
-100 -40 -97 -43 3 -3 70 -27 150 -53 243 -80 423 -180 598 -333 597 -523 717
-1394 283 -2046 -254 -380 -622 -620 -1061 -690 -195 -31 -516 -4 -708 61
-350 117 -608 323 -987 789 -287 352 -374 454 -470 550 -286 286 -570 423
-895 432 -55 1 -428 -3 -830 -10 -794 -13 -3239 -32 -4390 -33 -396 0 -850 -4
-1010 -9 -266 -7 -298 -10 -390 -34 -116 -30 -291 -113 -385 -182 -205 -150
-337 -303 -645 -749 -217 -314 -308 -429 -465 -585 -254 -255 -475 -376 -802
-442 -94 -19 -145 -22 -303 -22 -172 0 -201 3 -309 28 -143 33 -242 69 -367
132 -442 221 -765 643 -871 1138 -30 138 -32 414 -4 561 60 324 201 591 435
826 181 180 357 291 609 384 56 21 99 41 95 45 -4 4 -68 27 -142 50 -602 192
-1020 666 -1126 1275 -23 129 -23 356 -2 485 57 339 211 635 457 880 226 225
504 368 815 422 103 17 146 20 305 15 208 -6 313 -25 481 -83 238 -83 433
-211 653 -430 115 -116 212 -226 433 -494 201 -244 299 -353 416 -458 209
-187 425 -304 652 -352 111 -23 294 -30 1225 -50 2395 -49 4362 -28 5170 56
379 39 546 89 745 224 203 138 352 309 660 755 321 466 494 661 728 818 186
126 421 209 677 241 87 11 367 -3 458 -23z"/>
<path d="M11419 4341 c-32 -33 -36 -68 -19 -176 27 -173 40 -335 101 -1215 5
-85 17 -218 25 -295 15 -134 16 -141 46 -172 57 -59 148 -51 182 14 21 42 6
298 -48 800 -60 544 -64 593 -52 586 14 -9 132 -260 236 -503 160 -373 197
-434 265 -434 95 0 164 142 280 568 51 186 65 229 65 195 0 -26 100 -1164 106
-1197 5 -35 54 -75 113 -92 48 -13 105 12 126 56 15 32 14 43 -9 196 -14 90
-30 195 -36 233 -20 135 -60 525 -95 926 -19 222 -38 422 -41 443 -15 91 -117
129 -184 69 -32 -30 -35 -39 -242 -756 -62 -216 -73 -245 -84 -229 -15 22 -87
187 -174 397 -137 334 -263 515 -408 589 -70 35 -115 34 -153 -3z"/>
<path d="M7243 4328 c-69 -18 -74 -51 -43 -295 21 -168 50 -520 75 -928 18
-295 42 -555 56 -607 27 -105 174 -121 214 -24 18 43 4 264 -41 676 -50 461
-74 704 -69 708 7 7 148 -291 245 -518 150 -351 197 -430 257 -430 94 0 171
144 269 508 25 92 52 192 61 222 l16 55 56 -624 56 -623 44 -30 c56 -40 114
-46 158 -19 42 26 49 58 34 156 -48 319 -94 733 -141 1270 -41 468 -37 444
-76 483 -20 20 -42 32 -58 32 -39 0 -92 -25 -109 -52 -8 -12 -77 -238 -153
-500 -132 -455 -140 -477 -155 -456 -17 22 -35 62 -155 351 -92 220 -131 299
-201 404 -115 175 -244 266 -340 241z"/>
<path d="M9520 4300 c-125 -14 -262 -82 -408 -204 -303 -252 -446 -607 -327
-812 83 -142 258 -214 623 -254 103 -12 211 -28 240 -36 46 -13 51 -17 42 -33
-5 -11 -31 -35 -57 -54 -116 -85 -213 -129 -494 -227 -92 -32 -177 -65 -188
-72 -27 -16 -44 -69 -36 -108 16 -75 112 -91 265 -44 357 108 548 207 678 348
115 125 123 281 19 360 -79 61 -170 83 -462 116 -284 31 -363 54 -419 120 -72
86 17 286 218 486 70 70 119 109 159 129 56 27 58 27 100 11 60 -23 105 -20
166 10 42 21 57 36 72 68 36 80 16 166 -45 191 -38 16 -45 16 -146 5z"/>
<path d="M11002 4297 c-47 -27 -52 -45 -57 -234 -20 -703 -118 -1228 -254
-1357 -28 -27 -32 -28 -61 -16 -101 42 -218 266 -264 506 -39 210 -44 580 -12
899 15 144 11 167 -35 191 -36 18 -102 18 -139 -1 -61 -32 -64 -47 -64 -400 1
-404 24 -649 84 -880 75 -291 183 -459 343 -536 51 -25 70 -29 107 -24 121 17
222 104 300 259 24 48 45 84 47 79 1 -4 9 -84 18 -178 9 -93 17 -170 18 -171
1 -1 25 -4 52 -7 40 -5 59 -2 95 17 66 34 68 45 37 268 -60 435 -74 736 -57
1196 14 354 13 359 -42 388 -33 17 -85 18 -116 1z"/>
<path d="M6804 4270 c-11 -4 -32 -22 -46 -38 -25 -30 -25 -32 -31 -273 -14
-580 -98 -1065 -217 -1252 -36 -58 -66 -67 -115 -37 -104 65 -212 297 -250
540 -27 172 -31 503 -10 764 21 257 19 265 -54 287 -53 16 -104 4 -140 -31
-29 -29 -29 -30 -36 -187 -22 -450 27 -934 121 -1203 43 -126 63 -166 120
-247 76 -107 189 -183 273 -183 66 0 143 35 200 91 51 50 121 157 142 217 6
17 14 32 18 32 4 0 14 -77 23 -171 11 -120 20 -174 29 -180 25 -16 99 -9 140
11 64 33 66 45 36 252 -64 447 -81 836 -56 1311 13 241 11 254 -43 287 -35 21
-69 24 -104 10z"/>
<path d="M5251 4255 c-241 -53 -518 -295 -651 -569 -125 -257 -79 -464 127
-573 112 -60 245 -91 499 -118 146 -15 225 -29 251 -44 11 -6 3 -18 -36 -53
-97 -88 -210 -142 -511 -248 -96 -33 -186 -69 -199 -79 -16 -13 -25 -31 -28
-64 -5 -41 -2 -49 25 -77 28 -28 35 -30 104 -30 121 0 356 73 543 168 229 118
358 260 358 397 0 156 -111 223 -430 260 -391 44 -459 61 -523 130 -51 54 -23
180 73 323 74 111 207 240 289 282 64 33 69 34 112 22 68 -18 118 -15 166 11
76 40 109 132 76 212 -27 63 -106 80 -245 50z"/>
</g>
</svg>
